<svg width="20" height="20" viewBox="0 0 20 20" fill="none" xmlns="http://www.w3.org/2000/svg">
<path d="M3.84039 15.9659L3.23412 15.3597C3.0667 15.1923 3.0667 14.9208 3.23412 14.7534L13.0375 4.94997L7.64778 4.95603C7.53347 4.9565 7.42371 4.9113 7.34289 4.83047C7.26206 4.74964 7.21686 4.63988 7.21733 4.52557L7.22339 3.67073C7.22292 3.55642 7.26812 3.44666 7.34895 3.36584C7.42977 3.28501 7.53954 3.23981 7.65384 3.24028L15.0928 3.23422C15.2633 3.23411 15.4269 3.30172 15.5475 3.42216L15.7779 3.65255C15.8968 3.77424 15.9641 3.93713 15.9658 4.10725L15.9598 11.5462C15.9603 11.6605 15.9151 11.7703 15.8342 11.8511C15.7534 11.9319 15.6436 11.9771 15.5293 11.9767H14.6684C14.5555 11.9778 14.4469 11.9335 14.3671 11.8536C14.2872 11.7738 14.2429 11.6652 14.244 11.5523L14.2501 6.16252L4.44667 15.9659C4.27925 16.1334 4.00781 16.1334 3.84039 15.9659Z" fill="#161616"/>
</svg>
